<svg xmlns="http://www.w3.org/2000/svg" viewBox="0 0 24 24"><path d="M2.324 7.308h4.148v12.69H2.324V7.309zM4.406 1c.475 0 .94.134 1.336.386.396.251.704.609.886 1.027.182.418.23.878.137 1.322a2.256 2.256 0 0 1-.658 1.172 2.45 2.45 0 0 1-1.232.626 2.52 2.52 0 0 1-1.39-.13 2.384 2.384 0 0 1-1.08-.843A2.21 2.21 0 0 1 2 3.29c0-.607.255-1.189.705-1.618A2.472 2.472 0 0 1 4.405 1zm4.672 6.308h3.97v1.74h.054c.556-.997 1.905-2.046 3.925-2.046 4.194 0 4.973 2.626 4.973 6.044V20h-4.14v-6.17c0-1.473-.023-3.366-2.151-3.366-2.16 0-2.483 1.606-2.483 3.257V20h-4.14V7.31l-.008-.002z"/></svg>