<svg xmlns="http://www.w3.org/2000/svg" viewBox="0 0 24 24"><path fill-rule="evenodd" d="M22 12c0 5.523-4.477 10-10 10S2 17.523 2 12 6.477 2 12 2s10 4.477 10 10zm-9.642-2.618c-.973.405-2.917 1.242-5.832 2.512-.474.189-.721.373-.744.553-.038.304.343.424.862.587l.219.07c.51.166 1.197.36 1.554.368.324.007.685-.127 1.084-.401 2.724-1.839 4.13-2.768 4.219-2.788.062-.014.148-.032.207.02.058.052.052.15.046.177-.038.16-1.534 1.552-2.308 2.271-.241.225-.412.384-.447.42a8.802 8.802 0 0 1-.235.233c-.475.457-.83.8.02 1.36.408.269.734.492 1.06.713.356.243.711.485 1.171.786.117.077.229.156.338.234.414.295.786.56 1.246.518.267-.024.543-.275.684-1.025.33-1.77.982-5.608 1.132-7.19a1.757 1.757 0 0 0-.016-.393.421.421 0 0 0-.143-.27c-.12-.098-.304-.118-.387-.117-.376.007-.953.207-3.73 1.362z"/></svg>