<svg xmlns="http://www.w3.org/2000/svg" viewBox="0 0 24 24"><path d="M8.288 20c7.55 0 11.679-5.772 11.679-10.774 0-.163 0-.325-.013-.493A8.017 8.017 0 0 0 22 6.771a8.62 8.62 0 0 1-2.36.596c.859-.473 1.502-1.218 1.808-2.096a8.7 8.7 0 0 1-2.605.92 4.224 4.224 0 0 0-2.328-1.142 4.408 4.408 0 0 0-2.602.4 3.932 3.932 0 0 0-1.802 1.778 3.52 3.52 0 0 0-.259 2.421 12.428 12.428 0 0 1-4.685-1.147 11.531 11.531 0 0 1-3.774-2.807 3.536 3.536 0 0 0-.451 2.759c.236.939.85 1.76 1.719 2.295a4.315 4.315 0 0 1-1.864-.474v.046c.001.874.33 1.72.93 2.397.6.676 1.436 1.14 2.365 1.314a4.434 4.434 0 0 1-1.852.064c.263.752.774 1.41 1.461 1.88a4.339 4.339 0 0 0 2.374.748 8.707 8.707 0 0 1-5.096 1.627c-.327 0-.654-.018-.979-.052A12.33 12.33 0 0 0 8.288 20z"/></svg>