<svg xmlns="http://www.w3.org/2000/svg" viewBox="0 0 24 24"><path d="M22.783 8.236s-.216-1.473-.875-2.117c-.836-.849-1.774-.853-2.203-.903C16.626 5 12.009 5 12.009 5h-.014S7.378 5 4.3 5.216c-.43.05-1.367.053-2.204.903-.66.648-.875 2.117-.875 2.117A31.29 31.29 0 0 0 1 11.687v1.619a31.27 31.27 0 0 0 .22 3.451s.215 1.473.875 2.117c.837.85 1.938.823 2.426.91C6.28 19.95 12 20 12 20s4.622-.007 7.7-.223c.43-.05 1.368-.054 2.204-.903.66-.647.875-2.117.875-2.117.137-1.146.21-2.298.22-3.451v-1.619a31.292 31.292 0 0 0-.217-3.451zm-13.051 7.03v-5.99l5.943 3.007-5.943 2.984z"/></svg>